%FSTAX23Y23*%
%MOIN*%
%SFA1B1*%

%IPPOS*%
%ADD16C,0.007874*%
%ADD17C,0.010000*%
%ADD18C,0.005000*%
%ADD19C,0.006000*%
%ADD26R,0.025000X0.025000*%
%LNmb1066-1*%
%LPD*%
G54D16*
X00196Y0091D02*
Y00935D01*
X00236*
Y0091D02*
Y00935D01*
Y00835D02*
Y0086D01*
X00196Y00835D02*
X00236D01*
X00196D02*
Y0086D01*
G54D17*
X00629Y01469D02*
Y01663D01*
X0Y01429D02*
Y01663D01*
X00444Y01653D02*
X00629D01*
X0D02*
X00153D01*
X00569Y01673D02*
X00629Y01653D01*
X00569Y01633D02*
X00629Y01653D01*
X0D02*
X0006Y01633D01*
X0Y01653D02*
X0006Y01673D01*
X-00128Y01496D02*
X00026D01*
X-00128Y0D02*
X00263D01*
X-00118Y00882D02*
Y01496D01*
Y0D02*
Y00581D01*
X-00138Y01436D02*
X-00118Y01496D01*
X-00098Y01436*
X-00118Y0D02*
X-00098Y0006D01*
X-00138D02*
X-00118Y0D01*
X00166Y01792D02*
Y01732D01*
X00168Y01792D02*
X00186Y0174D01*
X00166Y01792D02*
X00186Y01732D01*
X00206Y01792D02*
X00186Y01732D01*
X00206Y01792D02*
Y01732D01*
X00208Y01792D02*
Y01732D01*
X00157Y01792D02*
X00168D01*
X00206D02*
X00217D01*
X00157Y01732D02*
X00174D01*
X00197D02*
X00217D01*
X00232Y01792D02*
Y01732D01*
X00235Y01792D02*
Y01732D01*
X00224Y01792D02*
X00258D01*
X00267Y01789*
X0027Y01786*
X00272Y0178*
Y01775*
X0027Y01769*
X00267Y01766*
X00258Y01763*
Y01792D02*
X00264Y01789D01*
X00267Y01786*
X0027Y0178*
Y01775*
X00267Y01769*
X00264Y01766*
X00258Y01763*
X00235D02*
X00258D01*
X00267Y0176*
X0027Y01757*
X00272Y01752*
Y01743*
X0027Y01737*
X00267Y01735*
X00258Y01732*
X00224*
X00258Y01763D02*
X00264Y0176D01*
X00267Y01757*
X0027Y01752*
Y01743*
X00267Y01737*
X00264Y01735*
X00258Y01732*
X0028Y0178D02*
X00286Y01783D01*
X00295Y01792*
Y01732*
X00292Y01789D02*
Y01732D01*
X0028D02*
X00306D01*
X00334Y01792D02*
X00325Y01789D01*
X00319Y0178*
X00316Y01766*
Y01757*
X00319Y01743*
X00325Y01735*
X00334Y01732*
X00339*
X00348Y01735*
X00354Y01743*
X00356Y01757*
Y01766*
X00354Y0178*
X00348Y01789*
X00339Y01792*
X00334*
X00328Y01789*
X00325Y01786*
X00322Y0178*
X00319Y01766*
Y01757*
X00322Y01743*
X00325Y01737*
X00328Y01735*
X00334Y01732*
X00339D02*
X00345Y01735D01*
X00348Y01737*
X00351Y01743*
X00354Y01757*
Y01766*
X00351Y0178*
X00348Y01786*
X00345Y01789*
X00339Y01792*
X004Y01783D02*
X00397Y0178D01*
X004Y01777*
X00402Y0178*
Y01783*
X004Y01789*
X00394Y01792*
X00385*
X00377Y01789*
X00371Y01783*
X00368Y01777*
X00365Y01766*
Y01749*
X00368Y0174*
X00374Y01735*
X00382Y01732*
X00388*
X00397Y01735*
X00402Y0174*
X00405Y01749*
Y01752*
X00402Y0176*
X00397Y01766*
X00388Y01769*
X00385*
X00377Y01766*
X00371Y0176*
X00368Y01752*
X00385Y01792D02*
X0038Y01789D01*
X00374Y01783*
X00371Y01777*
X00368Y01766*
Y01749*
X00371Y0174*
X00377Y01735*
X00382Y01732*
X00388D02*
X00394Y01735D01*
X004Y0174*
X00402Y01749*
Y01752*
X004Y0176*
X00394Y01766*
X00388Y01769*
X00448Y01783D02*
X00445Y0178D01*
X00448Y01777*
X00451Y0178*
Y01783*
X00448Y01789*
X00443Y01792*
X00434*
X00425Y01789*
X0042Y01783*
X00417Y01777*
X00414Y01766*
Y01749*
X00417Y0174*
X00423Y01735*
X00431Y01732*
X00437*
X00445Y01735*
X00451Y0174*
X00454Y01749*
Y01752*
X00451Y0176*
X00445Y01766*
X00437Y01769*
X00434*
X00425Y01766*
X0042Y0176*
X00417Y01752*
X00434Y01792D02*
X00428Y01789D01*
X00423Y01783*
X0042Y01777*
X00417Y01766*
Y01749*
X0042Y0174*
X00425Y01735*
X00431Y01732*
X00437D02*
X00443Y01735D01*
X00448Y0174*
X00451Y01749*
Y01752*
X00448Y0176*
X00443Y01766*
X00437Y01769*
G54D18*
X00312Y01141D02*
Y01152D01*
X00462*
Y01141D02*
Y01152D01*
X00312Y00342D02*
X00462D01*
X00312D02*
Y00352D01*
X00462Y00342D02*
Y00352D01*
X00409Y01201D02*
X00408Y01196D01*
Y01206*
X00409Y01201*
X00413Y01204*
X00418Y01206*
X00421*
X00426Y01204*
X00429Y01201*
X00431Y01197*
X00433Y01192*
Y01184*
X00431Y01179*
X00429Y01176*
X00426Y01172*
X00421Y01171*
X00418*
X00413Y01172*
X00409Y01176*
X00408Y01179*
X00421Y01206D02*
X00424Y01204D01*
X00428Y01201*
X00429Y01197*
X00431Y01192*
Y01184*
X00429Y01179*
X00428Y01176*
X00424Y01172*
X00421Y01171*
X00398Y01206D02*
Y01171D01*
X00396Y01206D02*
X00376Y01174D01*
X00396Y01202D02*
X00376Y01171D01*
Y01206D02*
Y01171D01*
X00403Y01206D02*
X00396D01*
X00381D02*
X00371D01*
X00403Y01171D02*
X00393D01*
X00365Y01199D02*
X00363Y01197D01*
X00365Y01196*
X00367Y01197*
Y01199*
X00365Y01202*
X00363Y01204*
X00358Y01206*
X00352*
X00347Y01204*
X00345Y01202*
X00343Y01199*
Y01196*
X00345Y01192*
X0035Y01189*
X00358Y01186*
X00362Y01184*
X00365Y01181*
X00367Y01176*
Y01171*
X00352Y01206D02*
X00348Y01204D01*
X00347Y01202*
X00345Y01199*
Y01196*
X00347Y01192*
X00352Y01189*
X00358Y01186*
X00367Y01174D02*
X00365Y01176D01*
X00362*
X00353Y01172*
X00348*
X00345Y01174*
X00343Y01176*
Y01179*
X00362Y01176D02*
X00353Y01171D01*
X00347*
X00345Y01172*
X00343Y01176*
X00212Y01201D02*
X00211Y01196D01*
Y01206*
X00212Y01201*
X00216Y01204*
X00221Y01206*
X00224*
X00229Y01204*
X00232Y01201*
X00234Y01197*
X00236Y01192*
Y01184*
X00234Y01179*
X00232Y01176*
X00229Y01172*
X00224Y01171*
X00221*
X00216Y01172*
X00212Y01176*
X00211Y01179*
X00224Y01206D02*
X00227Y01204D01*
X00231Y01201*
X00232Y01197*
X00234Y01192*
Y01184*
X00232Y01179*
X00231Y01176*
X00227Y01172*
X00224Y01171*
X00186Y01201D02*
X00187Y01199D01*
X00186Y01197*
X00184Y01199*
Y01201*
X00186Y01204*
X00189Y01206*
X00194*
X00199Y01204*
X00202Y01201*
X00204Y01197*
X00206Y01191*
Y01181*
X00204Y01176*
X00201Y01172*
X00196Y01171*
X00192*
X00187Y01172*
X00184Y01176*
X00182Y01181*
Y01182*
X00184Y01187*
X00187Y01191*
X00192Y01192*
X00194*
X00199Y01191*
X00202Y01187*
X00204Y01182*
X00194Y01206D02*
X00197Y01204D01*
X00201Y01201*
X00202Y01197*
X00204Y01191*
Y01181*
X00202Y01176*
X00199Y01172*
X00196Y01171*
X00192D02*
X00189Y01172D01*
X00186Y01176*
X00184Y01181*
Y01182*
X00186Y01187*
X00189Y01191*
X00192Y01192*
X00577Y01201D02*
X00575Y01196D01*
Y01206*
X00577Y01201*
X0058Y01204*
X00585Y01206*
X00588*
X00593Y01204*
X00597Y01201*
X00598Y01197*
X006Y01192*
Y01184*
X00598Y01179*
X00597Y01176*
X00593Y01172*
X00588Y01171*
X00585*
X0058Y01172*
X00577Y01176*
X00575Y01179*
X00588Y01206D02*
X00592Y01204D01*
X00595Y01201*
X00597Y01197*
X00598Y01192*
Y01184*
X00597Y01179*
X00595Y01176*
X00592Y01172*
X00588Y01171*
X0057Y01206D02*
Y01196D01*
Y01199D02*
X00568Y01202D01*
X00565Y01206*
X00562*
X00553Y01201*
X0055*
X00548Y01202*
X00547Y01206*
X00568Y01202D02*
X00565Y01204D01*
X00562*
X00553Y01201*
X00547Y01206D02*
Y01201D01*
X00548Y01196*
X00555Y01187*
X00557Y01184*
X00558Y01179*
Y01171*
X00548Y01196D02*
X00557Y01187D01*
X00558Y01184*
X0056Y01179*
Y01171*
X00183Y00335D02*
X00181Y0033D01*
Y0034*
X00183Y00335*
X00186Y00338*
X00191Y0034*
X00195*
X002Y00338*
X00203Y00335*
X00205Y00331*
X00206Y00326*
Y00318*
X00205Y00313*
X00203Y0031*
X002Y00306*
X00195Y00305*
X00191*
X00186Y00306*
X00183Y0031*
X00181Y00313*
X00195Y0034D02*
X00198Y00338D01*
X00201Y00335*
X00203Y00331*
X00205Y00326*
Y00318*
X00203Y00313*
X00201Y0031*
X00198Y00306*
X00195Y00305*
X00173Y0034D02*
X00176Y00323D01*
X00173Y00326*
X00168Y00328*
X00163*
X00158Y00326*
X00155Y00323*
X00153Y00318*
Y00315*
X00155Y0031*
X00158Y00306*
X00163Y00305*
X00168*
X00173Y00306*
X00175Y00308*
X00176Y00311*
Y00313*
X00175Y00315*
X00173Y00313*
X00175Y00311*
X00163Y00328D02*
X0016Y00326D01*
X00156Y00323*
X00155Y00318*
Y00315*
X00156Y0031*
X0016Y00306*
X00163Y00305*
X00173Y0034D02*
X00156D01*
X00173Y00338D02*
X00165D01*
X00156Y0034*
X00577Y00325D02*
X00575Y0032D01*
Y0033*
X00577Y00325*
X0058Y00328*
X00585Y0033*
X00588*
X00593Y00328*
X00597Y00325*
X00598Y00321*
X006Y00316*
Y00308*
X00598Y00303*
X00597Y003*
X00593Y00296*
X00588Y00295*
X00585*
X0058Y00296*
X00577Y003*
X00575Y00303*
X00588Y0033D02*
X00592Y00328D01*
X00595Y00325*
X00597Y00321*
X00598Y00316*
Y00308*
X00597Y00303*
X00595Y003*
X00592Y00296*
X00588Y00295*
X00562Y0033D02*
X00567Y00328D01*
X00568Y00325*
Y0032*
X00567Y00316*
X00562Y00315*
X00555*
X0055Y00316*
X00548Y0032*
Y00325*
X0055Y00328*
X00555Y0033*
X00562*
X00565Y00328*
X00567Y00325*
Y0032*
X00565Y00316*
X00562Y00315*
X00555D02*
X00552Y00316D01*
X0055Y0032*
Y00325*
X00552Y00328*
X00555Y0033*
X00562Y00315D02*
X00567Y00313D01*
X00568Y00311*
X0057Y00308*
Y00301*
X00568Y00298*
X00567Y00296*
X00562Y00295*
X00555*
X0055Y00296*
X00548Y00298*
X00547Y00301*
Y00308*
X00548Y00311*
X0055Y00313*
X00555Y00315*
X00562D02*
X00565Y00313D01*
X00567Y00311*
X00568Y00308*
Y00301*
X00567Y00298*
X00565Y00296*
X00562Y00295*
X00555D02*
X00552Y00296D01*
X0055Y00298*
X00548Y00301*
Y00308*
X0055Y00311*
X00552Y00313*
X00555Y00315*
X00203Y00502D02*
X00201Y00497D01*
Y00507*
X00203Y00502*
X00206Y00505*
X00211Y00507*
X00214*
X00219Y00505*
X00223Y00502*
X00224Y00499*
X00226Y00494*
Y00485*
X00224Y0048*
X00223Y00477*
X00219Y00474*
X00214Y00472*
X00211*
X00206Y00474*
X00203Y00477*
X00201Y0048*
X00214Y00507D02*
X00218Y00505D01*
X00221Y00502*
X00223Y00499*
X00224Y00494*
Y00485*
X00223Y0048*
X00221Y00477*
X00218Y00474*
X00214Y00472*
X00194Y005D02*
X00193Y00499D01*
X00194Y00497*
X00196Y00499*
Y005*
X00194Y00504*
X00193Y00505*
X00188Y00507*
X00181*
X00176Y00505*
X00174Y00502*
Y00497*
X00176Y00494*
X00181Y00492*
X00186*
X00181Y00507D02*
X00178Y00505D01*
X00176Y00502*
Y00497*
X00178Y00494*
X00181Y00492*
X00178Y0049*
X00174Y00487*
X00173Y00484*
Y00479*
X00174Y00475*
X00176Y00474*
X00181Y00472*
X00188*
X00193Y00474*
X00194Y00475*
X00196Y00479*
Y0048*
X00194Y00482*
X00193Y0048*
X00194Y00479*
X00176Y00489D02*
X00174Y00484D01*
Y00479*
X00176Y00475*
X00178Y00474*
X00181Y00472*
X00084Y00423D02*
X00083Y00418D01*
Y00428*
X00084Y00423*
X00088Y00427*
X00093Y00428*
X00096*
X00101Y00427*
X00104Y00423*
X00106Y0042*
X00108Y00415*
Y00407*
X00106Y00402*
X00104Y00398*
X00101Y00395*
X00096Y00393*
X00093*
X00088Y00395*
X00084Y00398*
X00083Y00402*
X00096Y00428D02*
X00099Y00427D01*
X00103Y00423*
X00104Y0042*
X00106Y00415*
Y00407*
X00104Y00402*
X00103Y00398*
X00099Y00395*
X00096Y00393*
X00061Y00425D02*
Y00393D01*
X00051Y00403D02*
X00078D01*
X00059Y00428*
Y00393*
X00066D02*
X00054D01*
X00143Y00787D02*
X00142Y00782D01*
Y00792*
X00143Y00787*
X00147Y00791*
X00152Y00792*
X00155*
X0016Y00791*
X00163Y00787*
X00165Y00784*
X00167Y00779*
Y00771*
X00165Y00766*
X00163Y00762*
X0016Y00759*
X00155Y00757*
X00152*
X00147Y00759*
X00143Y00762*
X00142Y00766*
X00155Y00792D02*
X00158Y00791D01*
X00162Y00787*
X00163Y00784*
X00165Y00779*
Y00771*
X00163Y00766*
X00162Y00762*
X00158Y00759*
X00155Y00757*
X00135Y00786D02*
X00133Y00784D01*
X00135Y00782*
X00137Y00784*
Y00786*
X00135Y00789*
X00133Y00791*
X00128Y00792*
X00122*
X00117Y00791*
X00115Y00789*
X00114Y00786*
Y00782*
X00115Y00779*
X0012Y00776*
X00128Y00772*
X00132Y00771*
X00135Y00767*
X00137Y00762*
Y00757*
X00122Y00792D02*
X00119Y00791D01*
X00117Y00789*
X00115Y00786*
Y00782*
X00117Y00779*
X00122Y00776*
X00128Y00772*
X00137Y00761D02*
X00135Y00762D01*
X00132*
X00124Y00759*
X00119*
X00115Y00761*
X00114Y00762*
Y00766*
X00132Y00762D02*
X00124Y00757D01*
X00117*
X00115Y00759*
X00114Y00762*
X00241Y00989D02*
Y00954D01*
X00239Y00989D02*
Y00954D01*
X00246Y00989D02*
X00226D01*
X00221Y00988*
X00219Y00986*
X00217Y00983*
Y00979*
X00219Y00976*
X00221Y00974*
X00226Y00973*
X00239*
X00226Y00989D02*
X00222Y00988D01*
X00221Y00986*
X00219Y00983*
Y00979*
X00221Y00976*
X00222Y00974*
X00226Y00973*
X00246Y00954D02*
X00234D01*
X00231Y00973D02*
X00227Y00971D01*
X00226Y00969*
X00221Y00958*
X00219Y00956*
X00217*
X00216Y00958*
X00227Y00971D02*
X00226Y00968D01*
X00222Y00956*
X00221Y00954*
X00217*
X00216Y00958*
Y00959*
X00189Y00978D02*
X00191Y00973D01*
X00194Y00969*
X00199Y00968*
X00201*
X00206Y00969*
X00209Y00973*
X00211Y00978*
Y00979*
X00209Y00984*
X00206Y00988*
X00201Y00989*
X00198*
X00193Y00988*
X00189Y00984*
X00188Y00979*
Y00969*
X00189Y00963*
X00191Y00959*
X00194Y00956*
X00199Y00954*
X00204*
X00208Y00956*
X00209Y00959*
Y00961*
X00208Y00963*
X00206Y00961*
X00208Y00959*
X00201Y00968D02*
X00204Y00969D01*
X00208Y00973*
X00209Y00978*
Y00979*
X00208Y00984*
X00204Y00988*
X00201Y00989*
X00198D02*
X00194Y00988D01*
X00191Y00984*
X00189Y00979*
Y00969*
X00191Y00963*
X00193Y00959*
X00196Y00956*
X00199Y00954*
X0Y00275D02*
Y00354D01*
X0059Y0D02*
X00629Y00039D01*
X0059Y01496D02*
X00629Y01456D01*
Y00039D02*
Y01456D01*
X0Y00275D02*
Y01456D01*
Y00275D02*
X00275Y0D01*
X0Y01456D02*
X00039Y01496D01*
X0059*
X00275Y0D02*
X0059D01*
G54D19*
X00196Y01127D02*
Y01152D01*
X00236*
Y01127D02*
Y01152D01*
Y01052D02*
Y01077D01*
X00196Y01052D02*
X00236D01*
X00196D02*
Y01077D01*
X0059Y01052D02*
Y01077D01*
X0055Y01052D02*
X0059D01*
X0055D02*
Y01077D01*
Y01127D02*
Y01152D01*
X0059*
Y01127D02*
Y01152D01*
X00127Y00354D02*
X00152D01*
X00127D02*
Y00394D01*
X00152*
X00202D02*
X00227D01*
Y00354D02*
Y00394D01*
X00202Y00354D02*
X00227D01*
X0055Y00418D02*
Y00443D01*
X0059*
Y00418D02*
Y00443D01*
Y00343D02*
Y00368D01*
X0055Y00343D02*
X0059D01*
X0055D02*
Y00368D01*
X00157Y00442D02*
Y00467D01*
X00117Y00442D02*
X00157D01*
X00117D02*
Y00467D01*
Y00517D02*
Y00542D01*
X00157*
Y00517D02*
Y00542D01*
X00098Y00442D02*
Y00467D01*
X00058Y00442D02*
X00098D01*
X00058D02*
Y00467D01*
Y00517D02*
Y00542D01*
X00098*
Y00517D02*
Y00542D01*
X00117Y00638D02*
Y00663D01*
Y00638D02*
X00157D01*
Y00663*
Y00713D02*
Y00738D01*
X00117D02*
X00157D01*
X00117Y00713D02*
Y00738D01*
X00169Y01617D02*
X00188D01*
X00179*
Y01677*
X00169Y01667*
X00258Y01677D02*
X00238Y01667D01*
X00218Y01647*
Y01627*
X00228Y01617*
X00248*
X00258Y01627*
Y01637*
X00248Y01647*
X00218*
X00278Y01617D02*
Y01627D01*
X00288*
Y01617*
X00278*
X00328Y01667D02*
X00338Y01677D01*
X00358*
X00368Y01667*
Y01627*
X00358Y01617*
X00338*
X00328Y01627*
Y01667*
X00388D02*
X00398Y01677D01*
X00418*
X00428Y01667*
Y01627*
X00418Y01617*
X00398*
X00388Y01627*
Y01667*
X-00132Y00597D02*
X-00142Y00607D01*
Y00627*
X-00132Y00637*
X-00122*
X-00112Y00627*
Y00617*
Y00627*
X-00102Y00637*
X-00092*
X-00082Y00627*
Y00607*
X-00092Y00597*
X-00132Y00657D02*
X-00142Y00667D01*
Y00687*
X-00132Y00697*
X-00122*
X-00112Y00687*
X-00102Y00697*
X-00092*
X-00082Y00687*
Y00667*
X-00092Y00657*
X-00102*
X-00112Y00667*
X-00122Y00657*
X-00132*
X-00112Y00667D02*
Y00687D01*
X-00082Y00717D02*
X-00092D01*
Y00727*
X-00082*
Y00717*
X-00132Y00767D02*
X-00142Y00777D01*
Y00797*
X-00132Y00807*
X-00092*
X-00082Y00797*
Y00777*
X-00092Y00767*
X-00132*
Y00827D02*
X-00142Y00836D01*
Y00856*
X-00132Y00866*
X-00092*
X-00082Y00856*
Y00836*
X-00092Y00827*
X-00132*
G54D26*
X00243Y01121D03*
M02*