%FSTAX23Y23*%
%MOIN*%
%SFA1B1*%

%IPPOS*%
%ADD16C,0.007874*%
%ADD17C,0.010000*%
%ADD18C,0.005000*%
%ADD19C,0.006000*%
%LNmb1066-1*%
%LPD*%
G36*
X00071Y00737D02*
X00051Y00722D01*
Y00752*
X00071Y00737*
G37*
G36*
Y01162D02*
X00051Y01147D01*
Y01177*
X00071Y01162*
G37*
G54D16*
X00461Y00649D02*
X00486D01*
X00461Y00609D02*
Y00649D01*
Y00609D02*
X00486D01*
X00536D02*
X00561D01*
Y00649*
X00536D02*
X00561D01*
X00461Y00708D02*
X00486D01*
X00461Y00668D02*
Y00708D01*
Y00668D02*
X00486D01*
X00536D02*
X00561D01*
Y00708*
X00536D02*
X00561D01*
X00461Y00827D02*
X00486D01*
X00461Y00787D02*
Y00827D01*
Y00787D02*
X00486D01*
X00536D02*
X00561D01*
Y00827*
X00536D02*
X00561D01*
X00536Y00728D02*
X00561D01*
Y00768*
X00536D02*
X00561D01*
X00461D02*
X00486D01*
X00461Y00728D02*
Y00768D01*
Y00728D02*
X00486D01*
X00536Y00964D02*
X00561D01*
Y01004*
X00536D02*
X00561D01*
X00461D02*
X00486D01*
X00461Y00964D02*
Y01004D01*
Y00964D02*
X00486D01*
X00182Y01299D02*
X00207D01*
Y01259D02*
Y01299D01*
X00182Y01259D02*
X00207D01*
X00107D02*
X00132D01*
X00107D02*
Y01299D01*
X00132*
G54D17*
X00629Y01469D02*
Y01663D01*
X0Y01429D02*
Y01663D01*
X00444Y01653D02*
X00629D01*
X0D02*
X00153D01*
X00569Y01673D02*
X00629Y01653D01*
X00569Y01633D02*
X00629Y01653D01*
X0D02*
X0006Y01633D01*
X0Y01653D02*
X0006Y01673D01*
X-00128Y01496D02*
X00026D01*
X-00128Y0D02*
X00263D01*
X-00118Y00882D02*
Y01496D01*
Y0D02*
Y00581D01*
X-00138Y01436D02*
X-00118Y01496D01*
X-00098Y01436*
X-00118Y0D02*
X-00098Y0006D01*
X-00138D02*
X-00118Y0D01*
X00166Y01792D02*
Y01732D01*
X00168Y01792D02*
X00186Y0174D01*
X00166Y01792D02*
X00186Y01732D01*
X00206Y01792D02*
X00186Y01732D01*
X00206Y01792D02*
Y01732D01*
X00208Y01792D02*
Y01732D01*
X00157Y01792D02*
X00168D01*
X00206D02*
X00217D01*
X00157Y01732D02*
X00174D01*
X00197D02*
X00217D01*
X00232Y01792D02*
Y01732D01*
X00235Y01792D02*
Y01732D01*
X00224Y01792D02*
X00258D01*
X00267Y01789*
X0027Y01786*
X00272Y0178*
Y01775*
X0027Y01769*
X00267Y01766*
X00258Y01763*
Y01792D02*
X00264Y01789D01*
X00267Y01786*
X0027Y0178*
Y01775*
X00267Y01769*
X00264Y01766*
X00258Y01763*
X00235D02*
X00258D01*
X00267Y0176*
X0027Y01757*
X00272Y01752*
Y01743*
X0027Y01737*
X00267Y01735*
X00258Y01732*
X00224*
X00258Y01763D02*
X00264Y0176D01*
X00267Y01757*
X0027Y01752*
Y01743*
X00267Y01737*
X00264Y01735*
X00258Y01732*
X0028Y0178D02*
X00286Y01783D01*
X00295Y01792*
Y01732*
X00292Y01789D02*
Y01732D01*
X0028D02*
X00306D01*
X00334Y01792D02*
X00325Y01789D01*
X00319Y0178*
X00316Y01766*
Y01757*
X00319Y01743*
X00325Y01735*
X00334Y01732*
X00339*
X00348Y01735*
X00354Y01743*
X00356Y01757*
Y01766*
X00354Y0178*
X00348Y01789*
X00339Y01792*
X00334*
X00328Y01789*
X00325Y01786*
X00322Y0178*
X00319Y01766*
Y01757*
X00322Y01743*
X00325Y01737*
X00328Y01735*
X00334Y01732*
X00339D02*
X00345Y01735D01*
X00348Y01737*
X00351Y01743*
X00354Y01757*
Y01766*
X00351Y0178*
X00348Y01786*
X00345Y01789*
X00339Y01792*
X004Y01783D02*
X00397Y0178D01*
X004Y01777*
X00402Y0178*
Y01783*
X004Y01789*
X00394Y01792*
X00385*
X00377Y01789*
X00371Y01783*
X00368Y01777*
X00365Y01766*
Y01749*
X00368Y0174*
X00374Y01735*
X00382Y01732*
X00388*
X00397Y01735*
X00402Y0174*
X00405Y01749*
Y01752*
X00402Y0176*
X00397Y01766*
X00388Y01769*
X00385*
X00377Y01766*
X00371Y0176*
X00368Y01752*
X00385Y01792D02*
X0038Y01789D01*
X00374Y01783*
X00371Y01777*
X00368Y01766*
Y01749*
X00371Y0174*
X00377Y01735*
X00382Y01732*
X00388D02*
X00394Y01735D01*
X004Y0174*
X00402Y01749*
Y01752*
X004Y0176*
X00394Y01766*
X00388Y01769*
X00448Y01783D02*
X00445Y0178D01*
X00448Y01777*
X00451Y0178*
Y01783*
X00448Y01789*
X00443Y01792*
X00434*
X00425Y01789*
X0042Y01783*
X00417Y01777*
X00414Y01766*
Y01749*
X00417Y0174*
X00423Y01735*
X00431Y01732*
X00437*
X00445Y01735*
X00451Y0174*
X00454Y01749*
Y01752*
X00451Y0176*
X00445Y01766*
X00437Y01769*
X00434*
X00425Y01766*
X0042Y0176*
X00417Y01752*
X00434Y01792D02*
X00428Y01789D01*
X00423Y01783*
X0042Y01777*
X00417Y01766*
Y01749*
X0042Y0174*
X00425Y01735*
X00431Y01732*
X00437D02*
X00443Y01735D01*
X00448Y0174*
X00451Y01749*
Y01752*
X00448Y0176*
X00443Y01766*
X00437Y01769*
G54D18*
X00114Y00555D02*
X00137D01*
Y00531D02*
Y00555D01*
Y00531D02*
X00255D01*
Y00555*
X00263*
X00279*
X00173Y00767D02*
Y00787D01*
Y00767D02*
X0022D01*
Y00787*
X00279Y00511D02*
Y00555D01*
X00114Y00511D02*
X00279D01*
X00114D02*
Y00555D01*
X00279Y00748D02*
Y00787D01*
X00114D02*
X00279D01*
X00114Y00748D02*
Y00787D01*
X00465Y01138D02*
Y01183D01*
X00518*
Y01138D02*
Y01183D01*
X00465Y01138D02*
X00518D01*
X0048Y01139D02*
Y01183D01*
X00388Y00881D02*
Y00846D01*
X0039Y00881D02*
Y00846D01*
X00383Y00881D02*
X00403D01*
X00408Y00879*
X0041Y00878*
X00412Y00874*
Y00871*
X0041Y00868*
X00408Y00866*
X00403Y00864*
X0039*
X00403Y00881D02*
X00407Y00879D01*
X00408Y00878*
X0041Y00874*
Y00871*
X00408Y00868*
X00407Y00866*
X00403Y00864*
X00383Y00846D02*
X00395D01*
X00398Y00864D02*
X00402Y00863D01*
X00403Y00861*
X00408Y00849*
X0041Y00848*
X00412*
X00413Y00849*
X00402Y00863D02*
X00403Y00859D01*
X00407Y00848*
X00408Y00846*
X00412*
X00413Y00849*
Y00851*
X00435Y00878D02*
Y00846D01*
X00445Y00856D02*
X00418D01*
X00436Y00881*
Y00846*
X0043D02*
X00441D01*
X00386Y00943D02*
Y00908D01*
X00388Y00943D02*
Y00908D01*
X00381Y00943D02*
X00401D01*
X00406Y00941*
X00408Y00939*
X0041Y00936*
Y00933*
X00408Y00929*
X00406Y00928*
X00401Y00926*
X00388*
X00401Y00943D02*
X00405Y00941D01*
X00406Y00939*
X00408Y00936*
Y00933*
X00406Y00929*
X00405Y00928*
X00401Y00926*
X00381Y00908D02*
X00393D01*
X00396Y00926D02*
X004Y00924D01*
X00401Y00923*
X00406Y00911*
X00408Y00909*
X0041*
X00411Y00911*
X004Y00924D02*
X00401Y00921D01*
X00405Y00909*
X00406Y00908*
X0041*
X00411Y00911*
Y00913*
X00418Y00936D02*
X00419Y00934D01*
X00418Y00933*
X00416Y00934*
Y00936*
X00418Y00939*
X00419Y00941*
X00424Y00943*
X00431*
X00436Y00941*
X00438Y00938*
Y00933*
X00436Y00929*
X00431Y00928*
X00426*
X00431Y00943D02*
X00434Y00941D01*
X00436Y00938*
Y00933*
X00434Y00929*
X00431Y00928*
X00434Y00926*
X00438Y00923*
X00439Y00919*
Y00914*
X00438Y00911*
X00436Y00909*
X00431Y00908*
X00424*
X00419Y00909*
X00418Y00911*
X00416Y00914*
Y00916*
X00418Y00918*
X00419Y00916*
X00418Y00914*
X00436Y00924D02*
X00438Y00919D01*
Y00914*
X00436Y00911*
X00434Y00909*
X00431Y00908*
X00417Y01092D02*
X00418Y01087D01*
Y01097*
X00417Y01092*
X00413Y01096*
X00408Y01097*
X00405*
X004Y01096*
X00397Y01092*
X00395Y01089*
X00393Y01084*
Y01076*
X00395Y01071*
X00397Y01067*
X004Y01064*
X00405Y01062*
X00408*
X00413Y01064*
X00417Y01067*
X00418Y01071*
X00405Y01097D02*
X00402Y01096D01*
X00398Y01092*
X00397Y01089*
X00395Y01084*
Y01076*
X00397Y01071*
X00398Y01067*
X00402Y01064*
X00405Y01062*
X00423Y01091D02*
X00427Y01092D01*
X00432Y01097*
Y01062*
X0043Y01096D02*
Y01062D01*
X00423D02*
X00438D01*
X00131Y00837D02*
X00133Y00832D01*
Y00842*
X00131Y00837*
X00128Y0084*
X00123Y00842*
X00119*
X00114Y0084*
X00111Y00837*
X00109Y00833*
X00108Y00828*
Y0082*
X00109Y00815*
X00111Y00812*
X00114Y00808*
X00119Y00807*
X00123*
X00128Y00808*
X00131Y00812*
X00133Y00815*
X00119Y00842D02*
X00116Y0084D01*
X00113Y00837*
X00111Y00833*
X00109Y00828*
Y0082*
X00111Y00815*
X00113Y00812*
X00116Y00808*
X00119Y00807*
X00143Y00842D02*
Y00807D01*
X00144Y00842D02*
X00164Y0081D01*
X00144Y00838D02*
X00164Y00807D01*
Y00842D02*
Y00807D01*
X00138Y00842D02*
X00144D01*
X00159D02*
X00169D01*
X00138Y00807D02*
X00148D01*
X00174Y00835D02*
X00177Y00837D01*
X00182Y00842*
Y00807*
X0018Y0084D02*
Y00807D01*
X00174D02*
X00189D01*
X00367Y01184D02*
Y01149D01*
X00368Y01184D02*
Y01149D01*
X00362Y01184D02*
X00378D01*
X00383Y01182*
X00387Y01179*
X00388Y01176*
X0039Y01171*
Y01162*
X00388Y01157*
X00387Y01154*
X00383Y01151*
X00378Y01149*
X00362*
X00378Y01184D02*
X00382Y01182D01*
X00385Y01179*
X00387Y01176*
X00388Y01171*
Y01162*
X00387Y01157*
X00385Y01154*
X00382Y01151*
X00378Y01149*
X00395Y01177D02*
X00398Y01179D01*
X00403Y01184*
Y01149*
X00401Y01182D02*
Y01149D01*
X00395D02*
X0041D01*
X00388Y00645D02*
Y0061D01*
X0039Y00645D02*
Y0061D01*
X00383Y00645D02*
X00403D01*
X00408Y00643*
X0041Y00641*
X00412Y00638*
Y00635*
X0041Y00631*
X00408Y0063*
X00403Y00628*
X0039*
X00403Y00645D02*
X00407Y00643D01*
X00408Y00641*
X0041Y00638*
Y00635*
X00408Y00631*
X00407Y0063*
X00403Y00628*
X00383Y0061D02*
X00395D01*
X00398Y00628D02*
X00402Y00626D01*
X00403Y00625*
X00408Y00613*
X0041Y00611*
X00412*
X00413Y00613*
X00402Y00626D02*
X00403Y00623D01*
X00407Y00611*
X00408Y0061*
X00412*
X00413Y00613*
Y00615*
X00426Y00645D02*
X00421Y00643D01*
X0042Y0064*
Y00635*
X00421Y00631*
X00426Y0063*
X00433*
X00438Y00631*
X0044Y00635*
Y0064*
X00438Y00643*
X00433Y00645*
X00426*
X00423Y00643*
X00421Y0064*
Y00635*
X00423Y00631*
X00426Y0063*
X00433D02*
X00436Y00631D01*
X00438Y00635*
Y0064*
X00436Y00643*
X00433Y00645*
X00426Y0063D02*
X00421Y00628D01*
X0042Y00626*
X00418Y00623*
Y00616*
X0042Y00613*
X00421Y00611*
X00426Y0061*
X00433*
X00438Y00611*
X0044Y00613*
X00441Y00616*
Y00623*
X0044Y00626*
X00438Y00628*
X00433Y0063*
X00426D02*
X00423Y00628D01*
X00421Y00626*
X0042Y00623*
Y00616*
X00421Y00613*
X00423Y00611*
X00426Y0061*
X00433D02*
X00436Y00611D01*
X00438Y00613*
X0044Y00616*
Y00623*
X00438Y00626*
X00436Y00628*
X00433Y0063*
X00388Y00704D02*
Y00669D01*
X0039Y00704D02*
Y00669D01*
X00383Y00704D02*
X00403D01*
X00408Y00702*
X0041Y007*
X00412Y00697*
Y00694*
X0041Y0069*
X00408Y00689*
X00403Y00687*
X0039*
X00403Y00704D02*
X00407Y00702D01*
X00408Y007*
X0041Y00697*
Y00694*
X00408Y0069*
X00407Y00689*
X00403Y00687*
X00383Y00669D02*
X00395D01*
X00398Y00687D02*
X00402Y00685D01*
X00403Y00684*
X00408Y00672*
X0041Y0067*
X00412*
X00413Y00672*
X00402Y00685D02*
X00403Y00682D01*
X00407Y0067*
X00408Y00669*
X00412*
X00413Y00672*
Y00674*
X00418Y00704D02*
Y00694D01*
Y00697D02*
X0042Y007D01*
X00423Y00704*
X00426*
X00435Y00699*
X00438*
X0044Y007*
X00441Y00704*
X0042Y007D02*
X00423Y00702D01*
X00426*
X00435Y00699*
X00441Y00704D02*
Y00699D01*
X0044Y00694*
X00433Y00685*
X00431Y00682*
X0043Y00677*
Y00669*
X0044Y00694D02*
X00431Y00685D01*
X0043Y00682*
X00428Y00677*
Y00669*
X00388Y00822D02*
Y00787D01*
X0039Y00822D02*
Y00787D01*
X00383Y00822D02*
X00403D01*
X00408Y0082*
X0041Y00819*
X00412Y00815*
Y00812*
X0041Y00809*
X00408Y00807*
X00403Y00805*
X0039*
X00403Y00822D02*
X00407Y0082D01*
X00408Y00819*
X0041Y00815*
Y00812*
X00408Y00809*
X00407Y00807*
X00403Y00805*
X00383Y00787D02*
X00395D01*
X00398Y00805D02*
X00402Y00804D01*
X00403Y00802*
X00408Y0079*
X0041Y00789*
X00412*
X00413Y0079*
X00402Y00804D02*
X00403Y008D01*
X00407Y00789*
X00408Y00787*
X00412*
X00413Y0079*
Y00792*
X00438Y00817D02*
X00436Y00815D01*
X00438Y00814*
X0044Y00815*
Y00817*
X00438Y0082*
X00435Y00822*
X0043*
X00425Y0082*
X00421Y00817*
X0042Y00814*
X00418Y00807*
Y00797*
X0042Y00792*
X00423Y00789*
X00428Y00787*
X00431*
X00436Y00789*
X0044Y00792*
X00441Y00797*
Y00799*
X0044Y00804*
X00436Y00807*
X00431Y00809*
X0043*
X00425Y00807*
X00421Y00804*
X0042Y00799*
X0043Y00822D02*
X00426Y0082D01*
X00423Y00817*
X00421Y00814*
X0042Y00807*
Y00797*
X00421Y00792*
X00425Y00789*
X00428Y00787*
X00431D02*
X00435Y00789D01*
X00438Y00792*
X0044Y00797*
Y00799*
X00438Y00804*
X00435Y00807*
X00431Y00809*
X00388Y00763D02*
Y00728D01*
X0039Y00763D02*
Y00728D01*
X00383Y00763D02*
X00403D01*
X00408Y00761*
X0041Y0076*
X00412Y00756*
Y00753*
X0041Y0075*
X00408Y00748*
X00403Y00746*
X0039*
X00403Y00763D02*
X00407Y00761D01*
X00408Y0076*
X0041Y00756*
Y00753*
X00408Y0075*
X00407Y00748*
X00403Y00746*
X00383Y00728D02*
X00395D01*
X00398Y00746D02*
X00402Y00745D01*
X00403Y00743*
X00408Y00731*
X0041Y0073*
X00412*
X00413Y00731*
X00402Y00745D02*
X00403Y00741D01*
X00407Y0073*
X00408Y00728*
X00412*
X00413Y00731*
Y00733*
X00421Y00763D02*
X00418Y00746D01*
X00421Y0075*
X00426Y00751*
X00431*
X00436Y0075*
X0044Y00746*
X00441Y00741*
Y00738*
X0044Y00733*
X00436Y0073*
X00431Y00728*
X00426*
X00421Y0073*
X0042Y00731*
X00418Y00735*
Y00736*
X0042Y00738*
X00421Y00736*
X0042Y00735*
X00431Y00751D02*
X00435Y0075D01*
X00438Y00746*
X0044Y00741*
Y00738*
X00438Y00733*
X00435Y0073*
X00431Y00728*
X00421Y00763D02*
X00438D01*
X00421Y00761D02*
X0043D01*
X00438Y00763*
X00388Y00999D02*
Y00964D01*
X0039Y00999D02*
Y00964D01*
X00383Y00999D02*
X00403D01*
X00408Y00997*
X0041Y00996*
X00412Y00992*
Y00989*
X0041Y00986*
X00408Y00984*
X00403Y00982*
X0039*
X00403Y00999D02*
X00407Y00997D01*
X00408Y00996*
X0041Y00992*
Y00989*
X00408Y00986*
X00407Y00984*
X00403Y00982*
X00383Y00964D02*
X00395D01*
X00398Y00982D02*
X00402Y00981D01*
X00403Y00979*
X00408Y00967*
X0041Y00966*
X00412*
X00413Y00967*
X00402Y00981D02*
X00403Y00977D01*
X00407Y00966*
X00408Y00964*
X00412*
X00413Y00967*
Y00969*
X0042Y00992D02*
X00421Y00991D01*
X0042Y00989*
X00418Y00991*
Y00992*
X0042Y00996*
X00421Y00997*
X00426Y00999*
X00433*
X00438Y00997*
X0044Y00996*
X00441Y00992*
Y00989*
X0044Y00986*
X00435Y00982*
X00426Y00979*
X00423Y00977*
X0042Y00974*
X00418Y00969*
Y00964*
X00433Y00999D02*
X00436Y00997D01*
X00438Y00996*
X0044Y00992*
Y00989*
X00438Y00986*
X00433Y00982*
X00426Y00979*
X00418Y00967D02*
X0042Y00969D01*
X00423*
X00431Y00966*
X00436*
X0044Y00967*
X00441Y00969*
Y00972*
X00423Y00969D02*
X00431Y00964D01*
X00438*
X0044Y00966*
X00441Y00969*
X00142Y01349D02*
Y01314D01*
X00144Y01349D02*
Y01314D01*
X00137Y01349D02*
X00157D01*
X00162Y01348*
X00164Y01346*
X00166Y01343*
Y01339*
X00164Y01336*
X00162Y01334*
X00157Y01333*
X00144*
X00157Y01349D02*
X00161Y01348D01*
X00162Y01346*
X00164Y01343*
Y01339*
X00162Y01336*
X00161Y01334*
X00157Y01333*
X00137Y01314D02*
X00149D01*
X00152Y01333D02*
X00156Y01331D01*
X00157Y01329*
X00162Y01318*
X00164Y01316*
X00166*
X00167Y01318*
X00156Y01331D02*
X00157Y01328D01*
X00161Y01316*
X00162Y01314*
X00166*
X00167Y01318*
Y01319*
X00172Y01343D02*
X00175Y01344D01*
X0018Y01349*
Y01314*
X00178Y01348D02*
Y01314D01*
X00172D02*
X00187D01*
X00024Y01235D02*
Y0121D01*
X00026Y01205*
X00029Y01202*
X00034Y012*
X00038*
X00043Y01202*
X00046Y01205*
X00048Y0121*
Y01235*
X00026D02*
Y0121D01*
X00028Y01205*
X00031Y01202*
X00034Y012*
X00019Y01235D02*
X00031D01*
X00043D02*
X00053D01*
X00057Y01229D02*
X0006Y0123D01*
X00065Y01235*
Y012*
X00063Y01234D02*
Y012D01*
X00057D02*
X00072D01*
X00151Y00295D02*
X00152Y0029D01*
Y003*
X00151Y00295*
X00147Y00299*
X00142Y003*
X00139*
X00134Y00299*
X00131Y00295*
X00129Y00292*
X00127Y00287*
Y00279*
X00129Y00274*
X00131Y0027*
X00134Y00267*
X00139Y00265*
X00142*
X00147Y00267*
X00151Y0027*
X00152Y00274*
X00139Y003D02*
X00136Y00299D01*
X00132Y00295*
X00131Y00292*
X00129Y00287*
Y00279*
X00131Y00274*
X00132Y0027*
X00136Y00267*
X00139Y00265*
X00161Y00285D02*
Y00284D01*
X00159*
Y00285*
X00161Y00287*
X00164Y00289*
X00171*
X00174Y00287*
X00176Y00285*
X00177Y00282*
Y0027*
X00179Y00267*
X00181Y00265*
X00176Y00285D02*
Y0027D01*
X00177Y00267*
X00181Y00265*
X00182*
X00176Y00282D02*
X00174Y0028D01*
X00164Y00279*
X00159Y00277*
X00157Y00274*
Y0027*
X00159Y00267*
X00164Y00265*
X00169*
X00172Y00267*
X00176Y0027*
X00164Y00279D02*
X00161Y00277D01*
X00159Y00274*
Y0027*
X00161Y00267*
X00164Y00265*
X00192Y00289D02*
Y00265D01*
X00194Y00289D02*
Y00265D01*
Y00284D02*
X00197Y00287D01*
X00202Y00289*
X00206*
X00211Y00287*
X00212Y00284*
Y00265*
X00206Y00289D02*
X00209Y00287D01*
X00211Y00284*
Y00265*
X00212Y00284D02*
X00216Y00287D01*
X00221Y00289*
X00224*
X00229Y00287*
X00231Y00284*
Y00265*
X00224Y00289D02*
X00227Y00287D01*
X00229Y00284*
Y00265*
X00187Y00289D02*
X00194D01*
X00187Y00265D02*
X00199D01*
X00206D02*
X00217D01*
X00224D02*
X00236D01*
X0024Y00279D02*
X0026D01*
Y00282*
X00258Y00285*
X00257Y00287*
X00253Y00289*
X00248*
X00243Y00287*
X0024Y00284*
X00238Y00279*
Y00275*
X0024Y0027*
X00243Y00267*
X00248Y00265*
X00252*
X00257Y00267*
X0026Y0027*
X00258Y00279D02*
Y00284D01*
X00257Y00287*
X00248Y00289D02*
X00245Y00287D01*
X00242Y00284*
X0024Y00279*
Y00275*
X00242Y0027*
X00245Y00267*
X00248Y00265*
X0027Y00289D02*
Y00265D01*
X00272Y00289D02*
Y00265D01*
Y00279D02*
X00274Y00284D01*
X00277Y00287*
X0028Y00289*
X00285*
X00287Y00287*
Y00285*
X00285Y00284*
X00284Y00285*
X00285Y00287*
X00265Y00289D02*
X00272D01*
X00265Y00265D02*
X00277D01*
X00296Y00285D02*
Y00284D01*
X00294*
Y00285*
X00296Y00287*
X00299Y00289*
X00306*
X00309Y00287*
X00311Y00285*
X00312Y00282*
Y0027*
X00314Y00267*
X00316Y00265*
X00311Y00285D02*
Y0027D01*
X00312Y00267*
X00316Y00265*
X00317*
X00311Y00282D02*
X00309Y0028D01*
X00299Y00279*
X00294Y00277*
X00292Y00274*
Y0027*
X00294Y00267*
X00299Y00265*
X00304*
X00307Y00267*
X00311Y0027*
X00299Y00279D02*
X00296Y00277D01*
X00294Y00274*
Y0027*
X00296Y00267*
X00299Y00265*
X00359Y00289D02*
Y00265D01*
X00361Y00289D02*
Y00265D01*
Y00284D02*
X00364Y00287D01*
X00369Y00289*
X00372*
X00377Y00287*
X00379Y00284*
Y00265*
X00372Y00289D02*
X00376Y00287D01*
X00377Y00284*
Y00265*
X00379Y00284D02*
X00382Y00287D01*
X00387Y00289*
X00391*
X00396Y00287*
X00397Y00284*
Y00265*
X00391Y00289D02*
X00394Y00287D01*
X00396Y00284*
Y00265*
X00354Y00289D02*
X00361D01*
X00354Y00265D02*
X00366D01*
X00372D02*
X00384D01*
X00391D02*
X00402D01*
X00415Y00289D02*
X0041Y00287D01*
X00407Y00284*
X00405Y00279*
Y00275*
X00407Y0027*
X0041Y00267*
X00415Y00265*
X00418*
X00423Y00267*
X00427Y0027*
X00428Y00275*
Y00279*
X00427Y00284*
X00423Y00287*
X00418Y00289*
X00415*
X00412Y00287*
X00408Y00284*
X00407Y00279*
Y00275*
X00408Y0027*
X00412Y00267*
X00415Y00265*
X00418D02*
X00422Y00267D01*
X00425Y0027*
X00427Y00275*
Y00279*
X00425Y00284*
X00422Y00287*
X00418Y00289*
X00453Y003D02*
Y00265D01*
X00455Y003D02*
Y00265D01*
X00453Y00284D02*
X0045Y00287D01*
X00447Y00289*
X00443*
X00438Y00287*
X00435Y00284*
X00433Y00279*
Y00275*
X00435Y0027*
X00438Y00267*
X00443Y00265*
X00447*
X0045Y00267*
X00453Y0027*
X00443Y00289D02*
X0044Y00287D01*
X00437Y00284*
X00435Y00279*
Y00275*
X00437Y0027*
X0044Y00267*
X00443Y00265*
X00448Y003D02*
X00455D01*
X00453Y00265D02*
X0046D01*
X0047Y00289D02*
Y0027D01*
X00472Y00267*
X00477Y00265*
X0048*
X00485Y00267*
X00488Y0027*
X00472Y00289D02*
Y0027D01*
X00473Y00267*
X00477Y00265*
X00488Y00289D02*
Y00265D01*
X0049Y00289D02*
Y00265D01*
X00465Y00289D02*
X00472D01*
X00483D02*
X0049D01*
X00488Y00265D02*
X00495D01*
X00504Y003D02*
Y00265D01*
X00506Y003D02*
Y00265D01*
X00499Y003D02*
X00506D01*
X00499Y00265D02*
X00511D01*
X00519Y00279D02*
X00539D01*
Y00282*
X00537Y00285*
X00536Y00287*
X00532Y00289*
X00527*
X00522Y00287*
X00519Y00284*
X00517Y00279*
Y00275*
X00519Y0027*
X00522Y00267*
X00527Y00265*
X00531*
X00536Y00267*
X00539Y0027*
X00537Y00279D02*
Y00284D01*
X00536Y00287*
X00527Y00289D02*
X00524Y00287D01*
X00521Y00284*
X00519Y00279*
Y00275*
X00521Y0027*
X00524Y00267*
X00527Y00265*
X00132Y00349D02*
Y00314D01*
X00134Y00349D02*
X00144Y00319D01*
X00132Y00349D02*
X00144Y00314D01*
X00156Y00349D02*
X00144Y00314D01*
X00156Y00349D02*
Y00314D01*
X00157Y00349D02*
Y00314D01*
X00127Y00349D02*
X00134D01*
X00156D02*
X00162D01*
X00127Y00314D02*
X00137D01*
X00151D02*
X00162D01*
X00171Y00349D02*
Y00314D01*
X00173Y00349D02*
Y00314D01*
X00166Y00349D02*
X00186D01*
X00191Y00348*
X00193Y00346*
X00195Y00343*
Y00339*
X00193Y00336*
X00191Y00334*
X00186Y00333*
Y00349D02*
X0019Y00348D01*
X00191Y00346*
X00193Y00343*
Y00339*
X00191Y00336*
X0019Y00334*
X00186Y00333*
X00173D02*
X00186D01*
X00191Y00331*
X00193Y00329*
X00195Y00326*
Y00321*
X00193Y00318*
X00191Y00316*
X00186Y00314*
X00166*
X00186Y00333D02*
X0019Y00331D01*
X00191Y00329*
X00193Y00326*
Y00321*
X00191Y00318*
X0019Y00316*
X00186Y00314*
X00199Y00343D02*
X00203Y00344D01*
X00208Y00349*
Y00314*
X00206Y00348D02*
Y00314D01*
X00199D02*
X00214D01*
X0023Y00349D02*
X00225Y00348D01*
X00222Y00343*
X0022Y00334*
Y00329*
X00222Y00321*
X00225Y00316*
X0023Y00314*
X00234*
X00239Y00316*
X00242Y00321*
X00244Y00329*
Y00334*
X00242Y00343*
X00239Y00348*
X00234Y00349*
X0023*
X00227Y00348*
X00225Y00346*
X00224Y00343*
X00222Y00334*
Y00329*
X00224Y00321*
X00225Y00318*
X00227Y00316*
X0023Y00314*
X00234D02*
X00237Y00316D01*
X00239Y00318*
X0024Y00321*
X00242Y00329*
Y00334*
X0024Y00343*
X00239Y00346*
X00237Y00348*
X00234Y00349*
X00269Y00344D02*
X00267Y00343D01*
X00269Y00341*
X00271Y00343*
Y00344*
X00269Y00348*
X00266Y00349*
X00261*
X00256Y00348*
X00252Y00344*
X00251Y00341*
X00249Y00334*
Y00324*
X00251Y00319*
X00254Y00316*
X00259Y00314*
X00262*
X00267Y00316*
X00271Y00319*
X00272Y00324*
Y00326*
X00271Y00331*
X00267Y00334*
X00262Y00336*
X00261*
X00256Y00334*
X00252Y00331*
X00251Y00326*
X00261Y00349D02*
X00257Y00348D01*
X00254Y00344*
X00252Y00341*
X00251Y00334*
Y00324*
X00252Y00319*
X00256Y00316*
X00259Y00314*
X00262D02*
X00266Y00316D01*
X00269Y00319*
X00271Y00324*
Y00326*
X00269Y00331*
X00266Y00334*
X00262Y00336*
X00297Y00344D02*
X00296Y00343D01*
X00297Y00341*
X00299Y00343*
Y00344*
X00297Y00348*
X00294Y00349*
X00289*
X00284Y00348*
X00281Y00344*
X00279Y00341*
X00277Y00334*
Y00324*
X00279Y00319*
X00282Y00316*
X00287Y00314*
X00291*
X00296Y00316*
X00299Y00319*
X00301Y00324*
Y00326*
X00299Y00331*
X00296Y00334*
X00291Y00336*
X00289*
X00284Y00334*
X00281Y00331*
X00279Y00326*
X00289Y00349D02*
X00286Y00348D01*
X00282Y00344*
X00281Y00341*
X00279Y00334*
Y00324*
X00281Y00319*
X00284Y00316*
X00287Y00314*
X00291D02*
X00294Y00316D01*
X00297Y00319*
X00299Y00324*
Y00326*
X00297Y00331*
X00294Y00334*
X00291Y00336*
X00374Y00349D02*
Y00314D01*
X00376Y00349D02*
Y00314D01*
X00369Y00349D02*
X00389D01*
X00394Y00348*
X00396Y00346*
X00397Y00343*
Y00339*
X00396Y00336*
X00394Y00334*
X00389Y00333*
X00376*
X00389Y00349D02*
X00392Y00348D01*
X00394Y00346*
X00396Y00343*
Y00339*
X00394Y00336*
X00392Y00334*
X00389Y00333*
X00369Y00314D02*
X00381D01*
X00384Y00333D02*
X00387Y00331D01*
X00389Y00329*
X00394Y00318*
X00396Y00316*
X00397*
X00399Y00318*
X00387Y00331D02*
X00389Y00328D01*
X00392Y00316*
X00394Y00314*
X00397*
X00399Y00318*
Y00319*
X00405Y00328D02*
X00425D01*
Y00331*
X00423Y00334*
X00422Y00336*
X00418Y00338*
X00413*
X00408Y00336*
X00405Y00333*
X00403Y00328*
Y00324*
X00405Y00319*
X00408Y00316*
X00413Y00314*
X00417*
X00422Y00316*
X00425Y00319*
X00423Y00328D02*
Y00333D01*
X00422Y00336*
X00413Y00338D02*
X0041Y00336D01*
X00407Y00333*
X00405Y00328*
Y00324*
X00407Y00319*
X0041Y00316*
X00413Y00314*
X00434Y00338D02*
X00444Y00314D01*
X00435Y00338D02*
X00444Y00318D01*
X00454Y00338D02*
X00444Y00314D01*
X0043Y00338D02*
X0044D01*
X00447D02*
X00457D01*
X00508Y00349D02*
X00497Y00314D01*
X00508Y00349D02*
X0052Y00314D01*
X00508Y00344D02*
X00518Y00314D01*
X005Y00324D02*
X00515D01*
X00493Y00314D02*
X00503D01*
X00513D02*
X00523D01*
X0Y00275D02*
Y00354D01*
X0059Y0D02*
X00629Y00039D01*
X0059Y01496D02*
X00629Y01456D01*
Y00039D02*
Y01456D01*
X0Y00275D02*
Y01456D01*
Y00275D02*
X00275Y0D01*
X0Y01456D02*
X00039Y01496D01*
X0059*
X00275Y0D02*
X0059D01*
G54D19*
X00174Y01163D02*
D01*
X00174Y01164*
X00174Y01165*
X00174Y01166*
X00174Y01167*
X00173Y01168*
X00173Y01169*
X00173Y0117*
X00172Y01171*
X00172Y01172*
X00171Y01173*
X0017Y01173*
X0017Y01174*
X00169Y01175*
X00168Y01175*
X00167Y01176*
X00166Y01176*
X00165Y01177*
X00164Y01177*
X00163Y01177*
X00163Y01178*
X00162Y01178*
X00161Y01178*
X0016*
X00159Y01178*
X00158Y01178*
X00157Y01177*
X00156Y01177*
X00155Y01177*
X00154Y01176*
X00153Y01176*
X00152Y01175*
X00151Y01175*
X0015Y01174*
X0015Y01173*
X00149Y01173*
X00148Y01172*
X00148Y01171*
X00147Y0117*
X00147Y01169*
X00147Y01168*
X00146Y01167*
X00146Y01166*
X00146Y01165*
X00146Y01164*
X00146Y01163*
X00146Y01162*
X00146Y01161*
X00146Y01161*
X00146Y0116*
X00147Y01159*
X00147Y01158*
X00147Y01157*
X00148Y01156*
X00148Y01155*
X00149Y01154*
X0015Y01154*
X0015Y01153*
X00151Y01152*
X00152Y01152*
X00153Y01151*
X00154Y01151*
X00155Y0115*
X00156Y0115*
X00157Y0115*
X00158Y01149*
X00159Y01149*
X0016Y01149*
X00161*
X00162Y01149*
X00163Y01149*
X00163Y0115*
X00164Y0115*
X00165Y0115*
X00166Y01151*
X00167Y01151*
X00168Y01152*
X00169Y01152*
X0017Y01153*
X0017Y01154*
X00171Y01154*
X00172Y01155*
X00172Y01156*
X00173Y01157*
X00173Y01158*
X00173Y01159*
X00174Y0116*
X00174Y01161*
X00174Y01161*
X00174Y01162*
X00174Y01163*
X00536Y00886D02*
X00561D01*
Y00846D02*
Y00886D01*
X00536Y00846D02*
X00561D01*
X00461D02*
X00486D01*
X00461D02*
Y00886D01*
X00486*
X00536Y00945D02*
X00561D01*
Y00905D02*
Y00945D01*
X00536Y00905D02*
X00561D01*
X00461D02*
X00486D01*
X00461D02*
Y00945D01*
X00486*
X00461Y01062D02*
X00486D01*
X00461D02*
Y01102D01*
X00486*
X00536D02*
X00561D01*
Y01062D02*
Y01102D01*
X00536Y01062D02*
X00561D01*
X00108Y01194D02*
Y01209D01*
X00101Y00914D02*
Y00929D01*
X00108Y01209D02*
X00291D01*
Y00914D02*
Y0093D01*
X00101Y00914D02*
X00291D01*
Y01195D02*
Y01209D01*
X00169Y01617D02*
X00188D01*
X00179*
Y01677*
X00169Y01667*
X00258Y01677D02*
X00238Y01667D01*
X00218Y01647*
Y01627*
X00228Y01617*
X00248*
X00258Y01627*
Y01637*
X00248Y01647*
X00218*
X00278Y01617D02*
Y01627D01*
X00288*
Y01617*
X00278*
X00328Y01667D02*
X00338Y01677D01*
X00358*
X00368Y01667*
Y01627*
X00358Y01617*
X00338*
X00328Y01627*
Y01667*
X00388D02*
X00398Y01677D01*
X00418*
X00428Y01667*
Y01627*
X00418Y01617*
X00398*
X00388Y01627*
Y01667*
X-00132Y00597D02*
X-00142Y00607D01*
Y00627*
X-00132Y00637*
X-00122*
X-00112Y00627*
Y00617*
Y00627*
X-00102Y00637*
X-00092*
X-00082Y00627*
Y00607*
X-00092Y00597*
X-00132Y00657D02*
X-00142Y00667D01*
Y00687*
X-00132Y00697*
X-00122*
X-00112Y00687*
X-00102Y00697*
X-00092*
X-00082Y00687*
Y00667*
X-00092Y00657*
X-00102*
X-00112Y00667*
X-00122Y00657*
X-00132*
X-00112Y00667D02*
Y00687D01*
X-00082Y00717D02*
X-00092D01*
Y00727*
X-00082*
Y00717*
X-00132Y00767D02*
X-00142Y00777D01*
Y00797*
X-00132Y00807*
X-00092*
X-00082Y00797*
Y00777*
X-00092Y00767*
X-00132*
Y00827D02*
X-00142Y00836D01*
Y00856*
X-00132Y00866*
X-00092*
X-00082Y00856*
Y00836*
X-00092Y00827*
X-00132*
M02*